/* XPM */
static char *e9e2ea27a3504f96fb58ac9bc2ebdb06QVe53Kjp0kTM7SmK[] = {
/* columns rows colors chars-per-pixel */
"32 32 8 1 ",
"  c None",
". c #311C2A",
"X c #482823",
"o c #45283C",
"O c #663931",
"+ c #8F563B",
"@ c #CBDBFC",
"# c white",
/* pixels */
"                                ",
"                                ",
"          #####                 ",
"       ################         ",
"     ####@#####@#########       ",
"    ##@@@@@@@@@@@#####@###      ",
"    #@@@+++++++++@@###@@+@      ",
"    +++++++++++++++@@@@++O      ",
"    +OO+O+O++++OO+O++O+++O      ",
"    +O++O+OO+++OO+O+OO+O+O      ",
"    +++++++++++++++++++++O      ",
"    +++++++++++++++++++++O      ",
"    ++O+OO+++++O+OO+++OO+O      ",
"    +OO++O+OO++O+OO+O+O++O      ",
"    +++++++++++++++++++++O      ",
"    +++++++++++++++++++++O      ",
"    OO++++++++++++++++++OO      ",
"     OOOOOOOOOOOOOOOOOOOO       ",
"              oo                ",
"              Oo                ",
"              OO                ",
"              XX                ",
"              XX                ",
"              XX                ",
"              ..                ",
"                                ",
"                                ",
"                                ",
"                                ",
"                                ",
"                                ",
"                                "
};
