/* XPM */
static char *_8e1fdb66e77438ffb29e1031d49acabf2Zs4Z4cijg2QYEN[] = {
/* columns rows colors chars-per-pixel */
"32 32 5 1 ",
"  c None",
". c #17111A",
"X c #C44D29",
"o c #D8742D",
"O c #FFBF36",
/* pixels */
"                                ",
"                                ",
"                                ",
"                  .             ",
"                 .X.            ",
"        .        .X.            ",
"       .X.    . .X. .           ",
"       .XX.. .. .X. .           ",
"    .   .XX. .X.XoX.X.          ",
"   .X.  .oX.  .XXXoXX. .        ",
"   .X. .XOoX..XOXXOooX.O.       ",
"    .X..XOOOOXOOXoOOoXXOX. .    ",
"    .oXXOOoO.....OOoOXoooX..    ",
"   .XoOXO...     ...OOOoOXO.    ",
"   .XOX..           ..OOoOX.    ",
"   .OO.               .ooOX.    ",
"  .XX.                 .oO.     ",
"  .X.                   .O.     ",
"  .o.                   .XX.    ",
"  .o.                    .O.    ",
"  .O.                    .O.    ",
"  .XX.                .. .O.    ",
"   .OX.               .O.Oo.    ",
"   .OX. ..  .       . .O.o.     ",
"    .oX.X. .    .   ..XOX.      ",
"     .OXXX.X.  .X.  .XOO.       ",
"      ..OOXoX..XOX..XO..        ",
"        ..OOoXXOOOXO..          ",
"          ..........            ",
"                                ",
"                                ",
"                                "
};
