/* XPM */
static char *_fc32c39a8ee4a18b15ec44d4487d72943947eHjBIt1v02Q[] = {
/* columns rows colors chars-per-pixel */
"33 32 3 1 ",
"  c #9BADB7",
". c #CBDBFC",
"X c white",
/* pixels */
"XXXXXXXXXXXXXXXXXXXXXXXXXXXXXXXXX",
"XXXXXXXXXXXXXXXXXXXXXXXXXXXXXXXXX",
"XXXXXXXXXXXXXX.XXXXXXXXXXXXXXXXXX",
"XXXXXXXXXXXXXX..XXXXXXXXXXXXXXXXX",
"XXX.XXXXXXXXXX..XX.XXXXXXXXXXXXXX",
"XXX.XXXXXXXXXXX. ..XXXXXXXXXXXXXX",
"XXX.X.XXXXXXXXX .. XXXXXXXXXXXXXX",
"XXX.X.XXXXXXXXXX  XXXXXXXXXXXXXXX",
"XXXXX.XXXXXXXXXXXXXXXXXXXXXXXXXXX",
"XXXXXXXXXXXXXXXXXXXXXXXXXXXXXXXXX",
"XXXXXXXXXXXXXXXXXXXXXXXXXXXXXXXXX",
"XXXXXXXXXXXXXXXXXXXXXXXXXXXXX.XXX",
"XXXXXXXXXXXXXXXXXXXXXXXXXXXX.X.XX",
"XXXXXXXXXXXXXXXXXXXXXXXXXXXXX.XXX",
"XXXXXXXXXXXXXXXXXXXXXXXXXXXXXXXXX",
"XXXXXXXXXXXXXXXXXXXXXXXXXXXXXXXXX",
"XXXXXXXXXXXXXXXXXXXXXXXXXXXXXXXXX",
"XXXXXXX XXXXXXXXXXXXXXXXXXXXXXXXX",
"XXXXXX X XXXXXXXXXXXXXXXXXXXXXXXX",
"XXXXXXX XXXXXXXXXXXXXXXXXXXXXXXXX",
"XXXXXXXXXXXXXXXXXXXXXX.XXXXXXXXXX",
"XXXXXXXXXXXXXXXXXXXX.X.XXXXXXXXXX",
"XXXXXXXXXXXXXXXXXXXX.X.XXXXXXXXXX",
"XXXXXXXXXXXXXXXXXXXX.XXXXXXXXXXXX",
"XXXXXXXXXXXXXXXXXXXXXXXXXXXXXXXXX",
"XXXXXXXXXX.XXXXXXXXXXXXXXXXXXXXXX",
"XXXXXXXXX.X.XXXXXXXXXXXXXXXXXXXXX",
"XXXXXXXXXX.XXXXXXXXXXXXXXXXXXXXXX",
"XXXXXXXXXXXXXXXXXXXXXXXXXXXXXXXXX",
"XXXXXXXXXXXXXXXXXXX XXXXXXXXXXXXX",
"XXXXXXXXXXXXXXXXXX X XXXXXXXXXXXX",
"XXXXXXXXXXXXXXXXXXX XXXXXXXXXXXXX"
};
