/* XPM */
static char *a62038a3987a4f5b8936ce0e0d718bbf3cq2wGatQjZETgTS[] = {
/* columns rows colors chars-per-pixel */
"32 30 6 1 ",
"  c None",
". c #3E734E",
"X c #7AB055",
"o c #4D9262",
"O c #CBDBFC",
"+ c white",
/* pixels */
"                                ",
"                                ",
"                                ",
"                                ",
"              ++                ",
"            ++++++              ",
"           ++++++++             ",
"          ++++++++O.            ",
"         .+++++++OOo.           ",
"         .O++OOOOOo..           ",
"        .oXOOXooooo.+.          ",
"       .++ooo++o....+..         ",
"       .O+oo++++++++O..         ",
"       .oO++++++++OOo.+.        ",
"      .ooXO++++OOOoo..+..       ",
"     .++ooo+OOOXooo...++.       ",
"     .O++oo+oooo....oo+O.       ",
"     .XO++++oooooooo+++O..      ",
"     .oX+++Ooo+o++o++++o..      ",
"     .oXO++++++++++++++o+.      ",
"    .+.oXOOOOO++++OOOO+.+..     ",
"    .O+.+ooooXO+++Xooo++O..     ",
"    .oO++....oo++o...++Oo..     ",
"    .ooOO+ooo.++++.++OOo..      ",
"     .oooo+++OOOOO+OOoo...      ",
"      .o..oooooooooo.....       ",
"       .................        ",
"           .........            ",
"                                ",
"                                "
};
